<?xml version="1.0" encoding="utf-8"?>
<!-- Generator: Adobe Illustrator 26.0.1, SVG Export Plug-In . SVG Version: 6.00 Build 0)  -->
<svg version="1.1" id="Layer_1" xmlns="http://www.w3.org/2000/svg" xmlns:xlink="http://www.w3.org/1999/xlink" x="0px" y="0px"
	 viewBox="0 0 560 560" style="enable-background:new 0 0 560 560;" xml:space="preserve">
<style type="text/css">
	.st0{fill:#4A4966;}
	.st1{fill:#FFFFFF;}
	.st2{font-family:'ForteMT';}
	.st3{font-size:253px;}
	.st4{font-size:123px;}
</style>
<g>
	<path class="st0" d="M406.39,97.17c-22.29,6.22-46.98,14.31-57.68,34.84c-6.13,11.76-6.41,25.55-8.48,38.65
		c-5.36,33.94-23.88,65.43-50.21,87.5s-60.17,34.73-94.48,36.51c-12.49,0.65-25.29-0.05-37.19,3.8
		c-20.15,6.53-34.82,25.18-55.25,30.78c-7.2,1.97-14.81,2.22-21.9,4.53c-16.55,5.4-27.88,21.6-31.63,38.61
		c-1.32,5.96-1.83,12.29,0.05,18.1c2.83,8.75,10.59,14.96,18.58,19.5c24.86,14.11,55.99,16.65,82.8,6.74
		c38.15-14.1,63.93-50.01,99.5-69.72c25.91-14.36,55.84-19.48,85.28-22.75c29.44-3.27,59.3-4.95,87.73-13.26
		c28.43-8.32,55.93-24.25,71.23-49.62c6.12-10.15,10.17-22.4,7.15-33.87c-5.1-19.39-27.59-29.04-36.49-47
		c-6.17-12.45-5.02-27.25-9.11-40.53c-6.61-21.45-26.32-36.61-47.25-44.73"/>
	<g>
		<path class="st0" d="M405.99,95.72c-16.95,4.74-35.03,10.17-48.3,22.31c-6.8,6.22-11.54,14.07-14.1,22.92
			c-3,10.35-3.35,21.22-5.22,31.79c-7.11,40.09-32.38,75.67-66.9,96.93c-17.76,10.94-37.68,18.2-58.24,21.59
			c-11.02,1.81-22.04,1.95-33.16,2.43c-10.7,0.46-21.06,2.05-30.71,6.9c-17.08,8.58-30.63,23.89-49.87,27.98
			c-5.67,1.21-11.5,1.69-17.09,3.27c-4.43,1.26-8.64,3.25-12.42,5.89c-7.26,5.06-12.95,12.18-16.85,20.09
			c-4.25,8.62-7.25,18.98-5.93,28.63c1.31,9.63,8.02,16.86,15.81,22.09c16.75,11.25,37.85,16.33,57.88,15.59
			c20.11-0.75,38.79-7.85,55.49-18.83c16-10.52,30.03-23.65,44.78-35.79c7.6-6.25,15.41-12.26,23.77-17.48
			c9.2-5.74,19.04-10.33,29.28-13.88c20.96-7.25,43.04-10.42,65.01-12.78c43.12-4.62,89.02-6.92,126.18-31.9
			c15.71-10.56,30.18-25.48,36.48-43.68c3.22-9.3,3.56-19.33-0.61-28.38c-3.47-7.53-9.45-13.56-15.36-19.23
			c-6.09-5.85-12.58-11.56-17.13-18.76c-5.6-8.86-6.69-19.3-8.12-29.45c-1.39-9.85-3.71-19.22-9.03-27.73
			c-4.82-7.72-11.31-14.24-18.6-19.65c-7.22-5.36-15.22-9.54-23.58-12.82c-1.8-0.7-2.58,2.2-0.8,2.89
			c17,6.65,33.37,17.86,42.22,34.23c9.41,17.4,4.95,38.99,16.33,55.55c9.2,13.39,25.2,21.86,31.77,37.1
			c8.26,19.16-5.39,40.36-18.49,53.66c-29.95,30.39-73.96,38.1-114.6,42.42c-42.41,4.51-86.98,7.07-123.94,30.73
			c-31.58,20.22-55.99,52.17-92.03,65.15c-19.12,6.89-40.31,7.43-59.84,1.93c-9.51-2.68-18.92-6.74-26.98-12.51
			c-3.87-2.78-7.47-6.15-9.91-10.28c-2.91-4.9-3.63-10.5-3.1-16.1c1.71-17.96,13.27-37.08,30.9-43.14
			c5.19-1.79,10.66-2.4,16.04-3.34c4.82-0.84,9.45-2.12,13.94-4.07c8.48-3.7,15.96-9.23,23.48-14.53
			c7.7-5.42,15.65-10.84,24.71-13.7c10.95-3.45,22.55-3.06,33.89-3.51c20.07-0.8,39.91-5.12,58.41-12.95
			c36.27-15.33,65.9-44.08,81.15-80.52c3.7-8.85,6.53-18.07,8.34-27.5c1.96-10.26,2.35-20.79,4.85-30.94
			c2.31-9.4,6.86-17.66,14.02-24.21c6.47-5.92,14.37-10.16,22.44-13.48c7.97-3.28,16.25-5.74,24.54-8.06
			C408.65,98.09,407.86,95.2,405.99,95.72L405.99,95.72z"/>
	</g>
</g>
<g>
	<g>
		<path class="st1" d="M268.91,177.94c-0.02-0.12-0.07-0.22-0.13-0.31c-3.4-4.94-5.96-10.48-7.63-16.47
			c1.66-2.23,2.84-4.71,3.43-7.27c2.04-8.82-3.48-15.99-12.3-15.99c-8.82,0-17.65,7.18-19.69,15.99c-2.04,8.83,3.48,16,12.3,16
			c2.85,0,5.75-0.74,8.49-2.14c1.53,5.21,2.73,10.56,3.58,16.05c-0.07,0.32-0.01,0.6,0.13,0.82c0.03,0.14,0.05,0.29,0.07,0.43
			c0.07,0.44,0.45,0.69,0.88,0.74l-2.59,32.36l-0.23,2.95l-3.42,42.84l-0.23,2.95l-3.36,42.05l-0.24,2.94l-1.85,23.25
			c-8.63,2.02-16.41,9.41-18.43,18.19c-2.27,9.84,3.48,17.93,12.96,18.68c0.48,0.04,0.97,0.06,1.46,0.06l0.68-2.95
			c0.49,0,0.99-0.02,1.49-0.07l3.29-14.25h-1.47l0.34-1.47h1.47l-0.34,1.47h14.25c-2.43,7.54-9.84,13.56-17.54,14.25l-0.68,2.96
			c9.82-0.75,19.31-8.84,21.58-18.68c1.79-7.75-1.4-14.42-7.47-17.27h162.83c-6.63,3.16-12.09,9.39-13.74,16.53
			c-2.39,10.34,4.09,18.74,14.42,18.74c10.34,0,20.68-8.41,23.07-18.74c1.92-8.3-1.88-15.35-8.79-17.81l10.5-24.72l1.26-2.95
			l17.09-40.22l1.26-2.95l18.21-42.84l1.26-2.95l17.09-40.2H268.91z M256.29,165.68L256.29,165.68L256.29,165.68L256.29,165.68
			L256.29,165.68z M256.46,165.83c0-0.01,0-0.01,0-0.02h0.01L256.46,165.83L256.46,165.83z M256.57,165.81c0-0.01,0-0.01,0-0.01
			c-0.01-0.01-0.01-0.01-0.02-0.02c0-0.01-0.01-0.01-0.01-0.01l-0.08,0.04l-0.04-0.1l0-0.01l-0.01-0.01l0-0.02l-0.01-0.01
			c0.05-0.01,0.08-0.01,0.13-0.01c0.01,0.04,0.02,0.07,0.03,0.11c0,0,0.01,0,0,0.01c0.01,0.01,0.02,0.01,0.03,0.01
			c-0.01-0.01-0.02-0.01-0.03-0.01c0,0.01,0,0.01,0,0.01s0,0.01,0.01,0.01c0.02,0.02,0.03,0.04,0.06,0.07
			C256.61,165.83,256.6,165.82,256.57,165.81c0.02,0.03,0.04,0.06,0.05,0.1C256.61,165.87,256.59,165.84,256.57,165.81z
			 M408.63,180.89h45.83l-13.71,37.26h-43.45L408.63,180.89z M439.66,221.09l-15.78,42.84h-40.52l13.04-42.84H439.66z
			 M422.79,266.88l-14.94,40.58l-37.84,0.35l12.45-40.92H422.79z M340.79,263.93h-47.04l5.46-42.84h50.9L340.79,263.93z
			 M358.87,180.89l-8.11,37.26h-51.17l4.75-37.26H358.87z M268.04,177.57l-0.23,0.46c-0.21,0.43-0.42,0.85-0.63,1.27l-0.32,0.63
			l-0.34-0.49c-0.28-0.43-0.57-0.84-0.84-1.27l-0.38-0.61H268.04z M261.41,180.89h39.96l-4.76,37.26h-38.18L261.41,180.89z
			 M258.2,221.09h38.04l-5.47,42.84h-35.99L258.2,221.09z M254.55,266.88h35.86l-5.32,41.71l-33.89,0.31L254.55,266.88z
			 M245.3,351.84h-14.25c-0.16,0.49-0.3,0.97-0.41,1.47c-0.11,0.49-0.21,0.99-0.27,1.47h14.25l-3.29,14.25
			c-7.38-0.69-12.01-6.71-10.96-14.25h-0.07l0.68-2.95h0.07c2.43-7.54,9.84-13.56,17.54-14.25L245.3,351.84z M262.5,351.84h0.07
			l-0.34,1.47C262.35,352.81,262.44,352.33,262.5,351.84h-14.25l3.29-14.25C258.91,338.28,263.55,344.3,262.5,351.84z M249.27,333.1
			l1.69-21.25l33.75-0.32l-2.75,21.56H249.27z M293.37,266.88h46.77l-8.99,41.29l-43.11,0.4L293.37,266.88z M284.92,333.1
			l2.76-21.59l42.84-0.4l-4.79,21.98H284.92z M361.81,180.89h43.86l-11.33,37.26H353.7L361.81,180.89z M353.06,221.09h40.38
			l-13.03,42.84h-36.67L353.06,221.09z M359.36,333.1h-30.69l4.79-22.01l32.68-0.3L359.36,333.1z M334.11,308.14l8.98-41.26h36.42
			l-12.46,40.95L334.11,308.14z M362.32,333.1l6.79-22.34l37.66-0.35l-8.35,22.69H362.32z M423.39,368.3l-0.02,0.07h-2.95l0.02-0.07
			c-7.14-0.67-11.71-6.32-11.05-13.51h-0.24l0.68-2.95h0.1c2.18-7.88,9.81-14.27,17.77-14.98l-3.46,14.98h1.47l-0.34,1.47h-1.47
			l0.34-1.47h-14.31c-0.07,0.24-0.13,0.49-0.19,0.74c-0.06,0.25-0.11,0.49-0.15,0.74c-0.1,0.5-0.16,0.99-0.2,1.47h14.17l-3.12,13.51
			c0.47,0.05,0.96,0.07,1.46,0.07C422.39,368.37,422.89,368.35,423.39,368.3l3.12-13.51h14.16
			C438.01,361.98,430.83,367.63,423.39,368.3z M441.34,352.58c-0.11,0.48-0.24,0.95-0.39,1.41l0.5-2.15h-14.26l3.46-14.98
			c-0.47-0.05-0.96-0.07-1.46-0.07h1.47l-0.02,0.07C438.5,337.59,443.24,344.35,441.34,352.58z M433.2,333.1h-31.81l8.37-22.71
			l33.23-0.31L433.2,333.1z M444.24,307.12l-33.4,0.31l14.93-40.55h35.58L444.24,307.12z M462.6,263.93h-35.75l15.78-42.84h38.18
			L462.6,263.93z M482.07,218.15h-38.35l13.71-37.26h40.48L482.07,218.15z"/>
	</g>
	<text transform="matrix(1 0 0 1 57.7461 299.567)" class="st1 st2 st3">B</text>
	<text transform="matrix(1 0 0 1 253.7317 445.508)" class="st1 st2 st4">pap!</text>
</g>
</svg>
